<svg xmlns="http://www.w3.org/2000/svg" xmlns:xlink="http://www.w3.org/1999/xlink" width="200" zoomAndPan="magnify" viewBox="0 0 150 37.5" height="50" preserveAspectRatio="xMidYMid meet" version="1.0"><defs><g/><clipPath id="31483347e6"><path d="M 4 0.394531 L 41 0.394531 L 41 24 L 4 24 Z M 4 0.394531 " clip-rule="nonzero"/></clipPath><clipPath id="fabe8cf3f4"><path d="M 1 17 L 42.433594 17 L 42.433594 36.664062 L 1 36.664062 Z M 1 17 " clip-rule="nonzero"/></clipPath></defs><g clip-path="url(#31483347e6)"><path fill="#2f3334" d="M 12.113281 16.007812 L 14.402344 17.667969 L 19.273438 11.679688 L 24.496094 15.015625 L 30.0625 8.121094 L 39.707031 23.023438 C 40.070312 21.585938 40.261719 20.082031 40.261719 18.527344 C 40.261719 8.515625 32.214844 0.394531 22.285156 0.394531 C 12.355469 0.394531 4.304688 8.515625 4.304688 18.527344 C 4.304688 20.164062 4.519531 21.75 4.921875 23.257812 L 12.113281 16.007812 " fill-opacity="1" fill-rule="nonzero"/></g><g clip-path="url(#fabe8cf3f4)"><path fill="#738f52" d="M 31.636719 18.421875 L 28.207031 20.1875 L 30.132812 22.609375 L 20.121094 17.449219 L 27.628906 26.570312 L 18.105469 21.589844 L 17.128906 24.21875 L 18.960938 27.214844 L 11.6875 24.09375 L 1.003906 27.214844 L 6.5 27.214844 C 9.550781 32.84375 15.476562 36.664062 22.285156 36.664062 C 29.5625 36.664062 35.828125 32.300781 38.65625 26.027344 L 42.417969 27.214844 L 31.636719 18.421875 " fill-opacity="1" fill-rule="nonzero"/></g><g fill="#2f3334" fill-opacity="1"><g transform="translate(45.207166, 25.067614)"><g><path d="M 1.234375 0 L 1.234375 -14.140625 L 4.21875 -14.140625 L 4.21875 -8.3125 L 10.296875 -8.3125 L 10.296875 -14.140625 L 13.28125 -14.140625 L 13.28125 0 L 10.296875 0 L 10.296875 -5.84375 L 4.21875 -5.84375 L 4.21875 0 Z M 1.234375 0 "/></g></g></g><g fill="#2f3334" fill-opacity="1"><g transform="translate(59.717194, 25.067614)"><g><path d="M 1.171875 0 L 1.171875 -10.609375 L 4.125 -10.609375 L 4.125 0 Z M 2.65625 -11.984375 C 2.226562 -11.984375 1.859375 -12.128906 1.546875 -12.421875 C 1.234375 -12.710938 1.078125 -13.0625 1.078125 -13.46875 C 1.078125 -13.875 1.234375 -14.222656 1.546875 -14.515625 C 1.859375 -14.804688 2.226562 -14.953125 2.65625 -14.953125 C 3.09375 -14.953125 3.46875 -14.804688 3.78125 -14.515625 C 4.09375 -14.222656 4.25 -13.875 4.25 -13.46875 C 4.25 -13.0625 4.09375 -12.710938 3.78125 -12.421875 C 3.46875 -12.128906 3.09375 -11.984375 2.65625 -11.984375 Z M 2.65625 -11.984375 "/></g></g></g><g fill="#2f3334" fill-opacity="1"><g transform="translate(65.007381, 25.067614)"><g><path d="M 1.171875 0 L 1.171875 -14.140625 L 4.125 -14.140625 L 4.125 -6.578125 L 4.28125 -6.578125 L 7.671875 -10.609375 L 11.046875 -10.609375 L 7.109375 -6.015625 L 11.25 0 L 7.8125 0 L 4.90625 -4.28125 L 4.125 -3.375 L 4.125 0 Z M 1.171875 0 "/></g></g></g><g fill="#2f3334" fill-opacity="1"><g transform="translate(76.319818, 25.067614)"><g><path d="M 6.015625 0.203125 C 4.921875 0.203125 3.976562 -0.015625 3.1875 -0.453125 C 2.40625 -0.898438 1.800781 -1.53125 1.375 -2.34375 C 0.957031 -3.164062 0.75 -4.132812 0.75 -5.25 C 0.75 -6.34375 0.957031 -7.300781 1.375 -8.125 C 1.800781 -8.957031 2.398438 -9.601562 3.171875 -10.0625 C 3.941406 -10.519531 4.847656 -10.75 5.890625 -10.75 C 6.828125 -10.75 7.671875 -10.550781 8.421875 -10.15625 C 9.171875 -9.757812 9.765625 -9.160156 10.203125 -8.359375 C 10.648438 -7.554688 10.875 -6.554688 10.875 -5.359375 L 10.875 -4.546875 L 3.65625 -4.546875 C 3.65625 -3.753906 3.867188 -3.128906 4.296875 -2.671875 C 4.734375 -2.210938 5.320312 -1.984375 6.0625 -1.984375 C 6.550781 -1.984375 6.972656 -2.085938 7.328125 -2.296875 C 7.691406 -2.503906 7.945312 -2.8125 8.09375 -3.21875 L 10.8125 -3.046875 C 10.601562 -2.054688 10.078125 -1.265625 9.234375 -0.671875 C 8.398438 -0.0859375 7.328125 0.203125 6.015625 0.203125 Z M 3.65625 -6.375 L 8.109375 -6.375 C 8.109375 -7.007812 7.90625 -7.53125 7.5 -7.9375 C 7.101562 -8.34375 6.582031 -8.546875 5.9375 -8.546875 C 5.28125 -8.546875 4.742188 -8.332031 4.328125 -7.90625 C 3.910156 -7.488281 3.6875 -6.976562 3.65625 -6.375 Z M 3.65625 -6.375 "/></g></g></g><g fill="#2f3334" fill-opacity="1"><g transform="translate(87.943036, 25.067614)"><g><path d="M 1.234375 0 L 1.234375 -14.140625 L 10.59375 -14.140625 L 10.59375 -11.6875 L 4.21875 -11.6875 L 4.21875 -8.3125 L 9.96875 -8.3125 L 9.96875 -5.84375 L 4.21875 -5.84375 L 4.21875 0 Z M 1.234375 0 "/></g></g></g><g fill="#2f3334" fill-opacity="1"><g transform="translate(99.317625, 25.067614)"><g><path d="M 1.171875 0 L 1.171875 -10.609375 L 4.125 -10.609375 L 4.125 0 Z M 2.65625 -11.984375 C 2.226562 -11.984375 1.859375 -12.128906 1.546875 -12.421875 C 1.234375 -12.710938 1.078125 -13.0625 1.078125 -13.46875 C 1.078125 -13.875 1.234375 -14.222656 1.546875 -14.515625 C 1.859375 -14.804688 2.226562 -14.953125 2.65625 -14.953125 C 3.09375 -14.953125 3.46875 -14.804688 3.78125 -14.515625 C 4.09375 -14.222656 4.25 -13.875 4.25 -13.46875 C 4.25 -13.0625 4.09375 -12.710938 3.78125 -12.421875 C 3.46875 -12.128906 3.09375 -11.984375 2.65625 -11.984375 Z M 2.65625 -11.984375 "/></g></g></g><g fill="#2f3334" fill-opacity="1"><g transform="translate(104.607812, 25.067614)"><g><path d="M 4.125 -6.140625 L 4.125 0 L 1.171875 0 L 1.171875 -10.609375 L 3.984375 -10.609375 L 3.984375 -8.734375 L 4.109375 -8.734375 C 4.347656 -9.359375 4.738281 -9.847656 5.28125 -10.203125 C 5.832031 -10.566406 6.503906 -10.75 7.296875 -10.75 C 8.398438 -10.75 9.285156 -10.390625 9.953125 -9.671875 C 10.617188 -8.960938 10.953125 -7.988281 10.953125 -6.75 L 10.953125 0 L 8.015625 0 L 8.015625 -6.234375 C 8.015625 -6.878906 7.847656 -7.382812 7.515625 -7.75 C 7.179688 -8.113281 6.71875 -8.296875 6.125 -8.296875 C 5.53125 -8.296875 5.046875 -8.101562 4.671875 -7.71875 C 4.304688 -7.34375 4.125 -6.816406 4.125 -6.140625 Z M 4.125 -6.140625 "/></g></g></g><g fill="#2f3334" fill-opacity="1"><g transform="translate(116.700653, 25.067614)"><g><path d="M 5.078125 0.171875 C 4.273438 0.171875 3.546875 -0.0351562 2.890625 -0.453125 C 2.242188 -0.867188 1.726562 -1.484375 1.34375 -2.296875 C 0.96875 -3.109375 0.78125 -4.109375 0.78125 -5.296875 C 0.78125 -6.503906 0.976562 -7.515625 1.375 -8.328125 C 1.769531 -9.140625 2.289062 -9.742188 2.9375 -10.140625 C 3.59375 -10.546875 4.304688 -10.75 5.078125 -10.75 C 5.671875 -10.75 6.164062 -10.644531 6.5625 -10.4375 C 6.957031 -10.238281 7.28125 -9.992188 7.53125 -9.703125 C 7.78125 -9.410156 7.96875 -9.117188 8.09375 -8.828125 L 8.1875 -8.828125 L 8.1875 -14.140625 L 11.125 -14.140625 L 11.125 0 L 8.21875 0 L 8.21875 -1.703125 L 8.09375 -1.703125 C 7.957031 -1.398438 7.765625 -1.101562 7.515625 -0.8125 C 7.265625 -0.53125 6.9375 -0.296875 6.53125 -0.109375 C 6.132812 0.078125 5.648438 0.171875 5.078125 0.171875 Z M 6.015625 -2.171875 C 6.722656 -2.171875 7.269531 -2.457031 7.65625 -3.03125 C 8.050781 -3.601562 8.25 -4.363281 8.25 -5.3125 C 8.25 -6.257812 8.054688 -7.007812 7.671875 -7.5625 C 7.285156 -8.125 6.734375 -8.40625 6.015625 -8.40625 C 5.285156 -8.40625 4.726562 -8.117188 4.34375 -7.546875 C 3.96875 -6.972656 3.78125 -6.226562 3.78125 -5.3125 C 3.78125 -4.382812 3.972656 -3.628906 4.359375 -3.046875 C 4.742188 -2.460938 5.296875 -2.171875 6.015625 -2.171875 Z M 6.015625 -2.171875 "/></g></g></g><g fill="#2f3334" fill-opacity="1"><g transform="translate(129.055933, 25.067614)"><g><path d="M 6.015625 0.203125 C 4.921875 0.203125 3.976562 -0.015625 3.1875 -0.453125 C 2.40625 -0.898438 1.800781 -1.53125 1.375 -2.34375 C 0.957031 -3.164062 0.75 -4.132812 0.75 -5.25 C 0.75 -6.34375 0.957031 -7.300781 1.375 -8.125 C 1.800781 -8.957031 2.398438 -9.601562 3.171875 -10.0625 C 3.941406 -10.519531 4.847656 -10.75 5.890625 -10.75 C 6.828125 -10.75 7.671875 -10.550781 8.421875 -10.15625 C 9.171875 -9.757812 9.765625 -9.160156 10.203125 -8.359375 C 10.648438 -7.554688 10.875 -6.554688 10.875 -5.359375 L 10.875 -4.546875 L 3.65625 -4.546875 C 3.65625 -3.753906 3.867188 -3.128906 4.296875 -2.671875 C 4.734375 -2.210938 5.320312 -1.984375 6.0625 -1.984375 C 6.550781 -1.984375 6.972656 -2.085938 7.328125 -2.296875 C 7.691406 -2.503906 7.945312 -2.8125 8.09375 -3.21875 L 10.8125 -3.046875 C 10.601562 -2.054688 10.078125 -1.265625 9.234375 -0.671875 C 8.398438 -0.0859375 7.328125 0.203125 6.015625 0.203125 Z M 3.65625 -6.375 L 8.109375 -6.375 C 8.109375 -7.007812 7.90625 -7.53125 7.5 -7.9375 C 7.101562 -8.34375 6.582031 -8.546875 5.9375 -8.546875 C 5.28125 -8.546875 4.742188 -8.332031 4.328125 -7.90625 C 3.910156 -7.488281 3.6875 -6.976562 3.65625 -6.375 Z M 3.65625 -6.375 "/></g></g></g><g fill="#2f3334" fill-opacity="1"><g transform="translate(140.679144, 25.067614)"><g><path d="M 1.171875 0 L 1.171875 -10.609375 L 4.03125 -10.609375 L 4.03125 -8.765625 L 4.140625 -8.765625 C 4.328125 -9.421875 4.644531 -9.914062 5.09375 -10.25 C 5.550781 -10.59375 6.082031 -10.765625 6.6875 -10.765625 C 6.96875 -10.765625 7.226562 -10.726562 7.46875 -10.65625 C 7.71875 -10.59375 7.941406 -10.5 8.140625 -10.375 L 7.25 -7.9375 C 7.113281 -8.007812 6.960938 -8.066406 6.796875 -8.109375 C 6.640625 -8.160156 6.457031 -8.1875 6.25 -8.1875 C 5.65625 -8.1875 5.148438 -7.984375 4.734375 -7.578125 C 4.328125 -7.179688 4.125 -6.65625 4.125 -6 L 4.125 0 Z M 1.171875 0 "/></g></g></g></svg>