<svg xmlns="http://www.w3.org/2000/svg" xmlns:xlink="http://www.w3.org/1999/xlink" width="125" zoomAndPan="magnify" viewBox="0 0 93.75 93.749997" height="125" preserveAspectRatio="xMidYMid meet" version="1.0"><defs><clipPath id="325c7309c6"><path d="M 7 6.210938 L 89 6.210938 L 89 58 L 7 58 Z M 7 6.210938 " clip-rule="nonzero"/></clipPath><clipPath id="4f95c419e2"><path d="M 0 44 L 93.5 44 L 93.5 87.210938 L 0 87.210938 Z M 0 44 " clip-rule="nonzero"/></clipPath></defs><g clip-path="url(#325c7309c6)"><path fill="#2f3334" d="M 25.164062 41.082031 L 30.34375 44.785156 L 41.363281 31.417969 L 53.171875 38.863281 L 65.765625 23.460938 L 87.578125 56.746094 C 88.398438 53.535156 88.835938 50.175781 88.835938 46.710938 C 88.835938 24.34375 70.628906 6.210938 48.171875 6.210938 C 25.714844 6.210938 7.507812 24.34375 7.507812 46.710938 C 7.507812 50.367188 7.996094 53.90625 8.90625 57.273438 L 25.164062 41.082031 " fill-opacity="1" fill-rule="nonzero"/></g><g clip-path="url(#4f95c419e2)"><path fill="#738f52" d="M 69.328125 46.472656 L 61.570312 50.414062 L 65.929688 55.820312 L 43.285156 44.304688 L 60.257812 64.671875 L 38.722656 53.546875 L 36.515625 59.421875 L 40.65625 66.109375 L 24.207031 59.136719 L 0.0390625 66.109375 L 12.46875 66.109375 C 19.371094 78.683594 32.769531 87.210938 48.171875 87.210938 C 64.632812 87.210938 78.804688 77.46875 85.203125 63.460938 L 93.710938 66.109375 L 69.328125 46.472656 " fill-opacity="1" fill-rule="nonzero"/></g></svg>