<svg xmlns="http://www.w3.org/2000/svg" xmlns:xlink="http://www.w3.org/1999/xlink" width="225" zoomAndPan="magnify" viewBox="0 0 168.75 37.5" height="50" preserveAspectRatio="xMidYMid meet" version="1.0"><defs><g/><clipPath id="7b566e2297"><path d="M 6 0.394531 L 43 0.394531 L 43 24 L 6 24 Z M 6 0.394531 " clip-rule="nonzero"/></clipPath><clipPath id="1cf3cb8ab7"><path d="M 3.285156 17 L 44.792969 17 L 44.792969 36.714844 L 3.285156 36.714844 Z M 3.285156 17 " clip-rule="nonzero"/></clipPath></defs><g clip-path="url(#7b566e2297)"><path fill="#993b2c" d="M 14.425781 16.03125 L 16.71875 17.691406 L 21.597656 11.699219 L 26.828125 15.039062 L 32.402344 8.132812 L 42.0625 23.054688 C 42.425781 21.617188 42.621094 20.109375 42.621094 18.554688 C 42.621094 8.527344 34.558594 0.394531 24.613281 0.394531 C 14.667969 0.394531 6.609375 8.527344 6.609375 18.554688 C 6.609375 20.195312 6.824219 21.785156 7.226562 23.292969 L 14.425781 16.03125 " fill-opacity="1" fill-rule="nonzero"/></g><g clip-path="url(#1cf3cb8ab7)"><path fill="#738f52" d="M 33.980469 18.449219 L 30.546875 20.214844 L 32.476562 22.640625 L 22.449219 17.476562 L 29.964844 26.609375 L 20.429688 21.621094 L 19.453125 24.253906 L 21.285156 27.253906 L 14 24.128906 L 3.300781 27.253906 L 8.804688 27.253906 C 11.859375 32.894531 17.792969 36.714844 24.613281 36.714844 C 31.902344 36.714844 38.175781 32.347656 41.011719 26.066406 L 44.777344 27.253906 L 33.980469 18.449219 " fill-opacity="1" fill-rule="nonzero"/></g><g fill="#ffffff" fill-opacity="1"><g transform="translate(54.538024, 25.104746)"><g><path d="M 1.234375 0 L 1.234375 -14.171875 L 4.234375 -14.171875 L 4.234375 -8.328125 L 10.3125 -8.328125 L 10.3125 -14.171875 L 13.296875 -14.171875 L 13.296875 0 L 10.3125 0 L 10.3125 -5.859375 L 4.234375 -5.859375 L 4.234375 0 Z M 1.234375 0 "/></g></g></g><g fill="#ffffff" fill-opacity="1"><g transform="translate(69.069548, 25.104746)"><g><path d="M 1.171875 0 L 1.171875 -10.625 L 4.125 -10.625 L 4.125 0 Z M 2.65625 -12 C 2.21875 -12 1.84375 -12.144531 1.53125 -12.4375 C 1.21875 -12.726562 1.0625 -13.082031 1.0625 -13.5 C 1.0625 -13.90625 1.21875 -14.253906 1.53125 -14.546875 C 1.84375 -14.835938 2.21875 -14.984375 2.65625 -14.984375 C 3.09375 -14.984375 3.46875 -14.835938 3.78125 -14.546875 C 4.09375 -14.253906 4.25 -13.90625 4.25 -13.5 C 4.25 -13.082031 4.09375 -12.726562 3.78125 -12.4375 C 3.46875 -12.144531 3.09375 -12 2.65625 -12 Z M 2.65625 -12 "/></g></g></g><g fill="#ffffff" fill-opacity="1"><g transform="translate(74.367572, 25.104746)"><g><path d="M 1.171875 0 L 1.171875 -14.171875 L 4.125 -14.171875 L 4.125 -6.59375 L 4.28125 -6.59375 L 7.6875 -10.625 L 11.078125 -10.625 L 7.125 -6.03125 L 11.265625 0 L 7.8125 0 L 4.921875 -4.28125 L 4.125 -3.375 L 4.125 0 Z M 1.171875 0 "/></g></g></g><g fill="#ffffff" fill-opacity="1"><g transform="translate(85.696768, 25.104746)"><g><path d="M 6.015625 0.203125 C 4.929688 0.203125 3.992188 -0.015625 3.203125 -0.453125 C 2.410156 -0.898438 1.800781 -1.53125 1.375 -2.34375 C 0.957031 -3.164062 0.75 -4.140625 0.75 -5.265625 C 0.75 -6.359375 0.957031 -7.316406 1.375 -8.140625 C 1.800781 -8.960938 2.398438 -9.601562 3.171875 -10.0625 C 3.953125 -10.53125 4.863281 -10.765625 5.90625 -10.765625 C 6.84375 -10.765625 7.6875 -10.566406 8.4375 -10.171875 C 9.1875 -9.773438 9.78125 -9.175781 10.21875 -8.375 C 10.664062 -7.570312 10.890625 -6.570312 10.890625 -5.375 L 10.890625 -4.5625 L 3.65625 -4.5625 L 3.65625 -4.546875 C 3.65625 -3.753906 3.875 -3.128906 4.3125 -2.671875 C 4.75 -2.222656 5.332031 -2 6.0625 -2 C 6.5625 -2 6.988281 -2.097656 7.34375 -2.296875 C 7.707031 -2.503906 7.960938 -2.8125 8.109375 -3.21875 L 10.828125 -3.046875 C 10.628906 -2.054688 10.101562 -1.265625 9.25 -0.671875 C 8.40625 -0.0859375 7.328125 0.203125 6.015625 0.203125 Z M 3.65625 -6.390625 L 8.125 -6.390625 C 8.113281 -7.015625 7.90625 -7.53125 7.5 -7.9375 C 7.101562 -8.351562 6.585938 -8.5625 5.953125 -8.5625 C 5.296875 -8.5625 4.753906 -8.347656 4.328125 -7.921875 C 3.910156 -7.503906 3.6875 -6.992188 3.65625 -6.390625 Z M 3.65625 -6.390625 "/></g></g></g><g fill="#ffffff" fill-opacity="1"><g transform="translate(97.337204, 25.104746)"><g><path d="M 1.234375 0 L 1.234375 -14.171875 L 10.609375 -14.171875 L 10.609375 -11.703125 L 4.234375 -11.703125 L 4.234375 -8.328125 L 9.984375 -8.328125 L 9.984375 -5.859375 L 4.234375 -5.859375 L 4.234375 0 Z M 1.234375 0 "/></g></g></g><g fill="#ffffff" fill-opacity="1"><g transform="translate(108.728644, 25.104746)"><g><path d="M 1.171875 0 L 1.171875 -10.625 L 4.125 -10.625 L 4.125 0 Z M 2.65625 -12 C 2.21875 -12 1.84375 -12.144531 1.53125 -12.4375 C 1.21875 -12.726562 1.0625 -13.082031 1.0625 -13.5 C 1.0625 -13.90625 1.21875 -14.253906 1.53125 -14.546875 C 1.84375 -14.835938 2.21875 -14.984375 2.65625 -14.984375 C 3.09375 -14.984375 3.46875 -14.835938 3.78125 -14.546875 C 4.09375 -14.253906 4.25 -13.90625 4.25 -13.5 C 4.25 -13.082031 4.09375 -12.726562 3.78125 -12.4375 C 3.46875 -12.144531 3.09375 -12 2.65625 -12 Z M 2.65625 -12 "/></g></g></g><g fill="#ffffff" fill-opacity="1"><g transform="translate(114.026668, 25.104746)"><g><path d="M 4.125 -6.140625 L 4.125 0 L 1.171875 0 L 1.171875 -10.625 L 3.984375 -10.625 L 3.984375 -8.75 L 4.109375 -8.75 C 4.347656 -9.375 4.742188 -9.863281 5.296875 -10.21875 C 5.847656 -10.582031 6.519531 -10.765625 7.3125 -10.765625 C 8.414062 -10.765625 9.300781 -10.40625 9.96875 -9.6875 C 10.632812 -8.976562 10.96875 -8.003906 10.96875 -6.765625 L 10.96875 0 L 8.03125 0 L 8.03125 -6.234375 C 8.03125 -6.890625 7.859375 -7.398438 7.515625 -7.765625 C 7.179688 -8.128906 6.722656 -8.3125 6.140625 -8.3125 C 5.546875 -8.3125 5.0625 -8.117188 4.6875 -7.734375 C 4.3125 -7.359375 4.125 -6.828125 4.125 -6.140625 Z M 4.125 -6.140625 "/></g></g></g><g fill="#ffffff" fill-opacity="1"><g transform="translate(126.137423, 25.104746)"><g><path d="M 5.09375 0.171875 C 4.28125 0.171875 3.550781 -0.0351562 2.90625 -0.453125 C 2.257812 -0.867188 1.742188 -1.484375 1.359375 -2.296875 C 0.972656 -3.109375 0.78125 -4.109375 0.78125 -5.296875 C 0.78125 -6.515625 0.976562 -7.53125 1.375 -8.34375 C 1.769531 -9.15625 2.289062 -9.757812 2.9375 -10.15625 C 3.59375 -10.5625 4.304688 -10.765625 5.078125 -10.765625 C 5.679688 -10.765625 6.179688 -10.664062 6.578125 -10.46875 C 6.972656 -10.269531 7.296875 -10.019531 7.546875 -9.71875 C 7.796875 -9.425781 7.984375 -9.132812 8.109375 -8.84375 L 8.203125 -8.84375 L 8.203125 -14.171875 L 11.140625 -14.171875 L 11.140625 0 L 8.234375 0 L 8.234375 -1.703125 L 8.109375 -1.703125 C 7.972656 -1.410156 7.773438 -1.117188 7.515625 -0.828125 C 7.265625 -0.535156 6.941406 -0.296875 6.546875 -0.109375 C 6.148438 0.078125 5.664062 0.171875 5.09375 0.171875 Z M 6.03125 -2.171875 C 6.738281 -2.171875 7.285156 -2.457031 7.671875 -3.03125 C 8.066406 -3.601562 8.265625 -4.363281 8.265625 -5.3125 C 8.265625 -6.257812 8.066406 -7.015625 7.671875 -7.578125 C 7.285156 -8.140625 6.738281 -8.421875 6.03125 -8.421875 C 5.300781 -8.421875 4.742188 -8.132812 4.359375 -7.5625 C 3.984375 -6.988281 3.796875 -6.238281 3.796875 -5.3125 C 3.796875 -4.382812 3.984375 -3.628906 4.359375 -3.046875 C 4.742188 -2.460938 5.300781 -2.171875 6.03125 -2.171875 Z M 6.03125 -2.171875 "/></g></g></g><g fill="#ffffff" fill-opacity="1"><g transform="translate(138.511007, 25.104746)"><g><path d="M 6.015625 0.203125 C 4.929688 0.203125 3.992188 -0.015625 3.203125 -0.453125 C 2.410156 -0.898438 1.800781 -1.53125 1.375 -2.34375 C 0.957031 -3.164062 0.75 -4.140625 0.75 -5.265625 C 0.75 -6.359375 0.957031 -7.316406 1.375 -8.140625 C 1.800781 -8.960938 2.398438 -9.601562 3.171875 -10.0625 C 3.953125 -10.53125 4.863281 -10.765625 5.90625 -10.765625 C 6.84375 -10.765625 7.6875 -10.566406 8.4375 -10.171875 C 9.1875 -9.773438 9.78125 -9.175781 10.21875 -8.375 C 10.664062 -7.570312 10.890625 -6.570312 10.890625 -5.375 L 10.890625 -4.5625 L 3.65625 -4.5625 L 3.65625 -4.546875 C 3.65625 -3.753906 3.875 -3.128906 4.3125 -2.671875 C 4.75 -2.222656 5.332031 -2 6.0625 -2 C 6.5625 -2 6.988281 -2.097656 7.34375 -2.296875 C 7.707031 -2.503906 7.960938 -2.8125 8.109375 -3.21875 L 10.828125 -3.046875 C 10.628906 -2.054688 10.101562 -1.265625 9.25 -0.671875 C 8.40625 -0.0859375 7.328125 0.203125 6.015625 0.203125 Z M 3.65625 -6.390625 L 8.125 -6.390625 C 8.113281 -7.015625 7.90625 -7.53125 7.5 -7.9375 C 7.101562 -8.351562 6.585938 -8.5625 5.953125 -8.5625 C 5.296875 -8.5625 4.753906 -8.347656 4.328125 -7.921875 C 3.910156 -7.503906 3.6875 -6.992188 3.65625 -6.390625 Z M 3.65625 -6.390625 "/></g></g></g><g fill="#ffffff" fill-opacity="1"><g transform="translate(150.151438, 25.104746)"><g><path d="M 1.171875 0 L 1.171875 -10.625 L 4.03125 -10.625 L 4.03125 -8.78125 L 4.140625 -8.78125 C 4.335938 -9.4375 4.660156 -9.929688 5.109375 -10.265625 C 5.566406 -10.609375 6.097656 -10.78125 6.703125 -10.78125 C 6.984375 -10.78125 7.242188 -10.742188 7.484375 -10.671875 C 7.734375 -10.609375 7.957031 -10.515625 8.15625 -10.390625 L 7.265625 -7.953125 C 7.128906 -8.023438 6.976562 -8.082031 6.8125 -8.125 C 6.644531 -8.175781 6.460938 -8.203125 6.265625 -8.203125 C 5.671875 -8.203125 5.164062 -8 4.75 -7.59375 C 4.332031 -7.1875 4.125 -6.660156 4.125 -6.015625 L 4.125 0 Z M 1.171875 0 "/></g></g></g></svg>